# xmcd
#
# Track frame offsets:
#  150
#  10995
#  28702
#  41460
#  56245
#  73054
#  95758
#  125466
#  141355
#  167015
#  182592
#  203376
#  231135
#  250455
#
# Disc length: 3670 seconds
#
# Revision: 0
# Processed by: cddbd v1.5.1PL2 Copyright (c) Steve Scherf et al.
# Submitted via: Collectorz.com_Music_Collector 6.9
#
DISCID=c50e540e
DTITLE=Charles and Ed Play Blues - Back Door Sessions
DYEAR=1999
DGENRE=Blues
TTITLE0=Cherry Ball
TTITLE1=Walkin' By Myself
TTITLE2=Shinin' Moon
TTITLE3=High Temperature
TTITLE4=Chicken Shack
TTITLE5=Bring It On Home
TTITLE6=Pleadin' For Love
TTITLE7=Jesse Mae
TTITLE8=Baby What You Want Me To Do
TTITLE9=Buddy Had A Little Lamp
TTITLE10=Hideaway
TTITLE11=She's Gone
TTITLE12=Happy Blues For Lightening
TTITLE13=That's Alright
EXTD=
EXTT0=
EXTT1=
EXTT2=
EXTT3=
EXTT4=
EXTT5=
EXTT6=
EXTT7=
EXTT8=
EXTT9=
EXTT10=
EXTT11=
EXTT12=
EXTT13=
PLAYORDER=
